<svg width="251" height="251" viewBox="0 0 251 251" fill="none" xmlns="http://www.w3.org/2000/svg">
<circle cx="45" cy="45" r="24" fill="#52528C"/>
<circle cx="45" cy="205" r="24" fill="#52528C"/>
<circle cx="205" cy="205" r="24" fill="#52528C"/>
<circle cx="205" cy="45" r="24" fill="#52528C"/>
<rect y="125.394" width="177.333" height="177.333" transform="rotate(-45 0 125.394)" fill="#1E2019"/>
<path d="M15 125.5L122 19V232L15 125.5Z" stroke="#FCFAF9" stroke-width="4"/>
<path d="M127 236C128.333 236 129.667 236 131 236C131 229.92 131 223.84 131 217.761C131 187.674 131 157.587 131 127.5C131 109.502 131 91.5046 131 73.5069C131 55.3379 131 37.169 131 19L127.586 20.4142C158.12 50.9485 188.654 81.4828 219.189 112.017C223.488 116.316 227.787 120.615 232.086 124.914C233.029 123.971 233.971 123.029 234.914 122.086C230.615 117.787 226.316 113.488 222.017 109.189C191.483 78.6544 160.949 48.1201 130.414 17.5858L127 14.1716V19C127 37.169 127 55.3379 127 73.5069C127 91.5046 127 109.502 127 127.5C127 157.587 127 187.674 127 217.761C127 223.84 127 229.92 127 236Z" fill="#FCFAF9"/>
<path d="M129 92L198 161" stroke="#FCFAF9" stroke-width="4"/>
</svg>
